<?xml version="1.0" standalone="no"?>
<!DOCTYPE svg PUBLIC "-//W3C//DTD SVG 20010904//EN"
 "http://www.w3.org/TR/2001/REC-SVG-20010904/DTD/svg10.dtd">
<svg version="1.0" xmlns="http://www.w3.org/2000/svg"
 width="300.000000pt" height="300.000000pt" viewBox="0 0 300.000000 300.000000"
 preserveAspectRatio="xMidYMid meet">
<metadata>
Created by potrace 1.14, written by Peter Selinger 2001-2017
</metadata>
<g transform="translate(0.000000,300.000000) scale(0.100000,-0.100000)"
fill="#000000" stroke="none">
<path d="M450 2326 l0 -285 521 -426 c287 -234 526 -424 533 -422 6 3 140 111
298 241 158 130 289 236 292 236 3 0 6 -286 6 -635 l0 -635 220 0 220 0 0
1105 c0 608 -3 1105 -7 1105 -5 0 -235 -187 -513 -416 -278 -229 -508 -418
-511 -420 -4 -2 -239 185 -524 416 -284 231 -521 420 -526 420 -5 0 -9 -124
-9 -284z"/>
<path d="M457 1672 c-1 -4 -3 -290 -2 -637 l0 -630 220 -3 220 -2 -2 462 -1
462 -24 21 c-28 23 -61 50 -238 194 -69 56 -135 111 -147 121 -12 11 -24 16
-26 12z"/>
</g>
</svg>
